<svg width="82" height="82" viewBox="0 0 82 82" fill="none" xmlns="http://www.w3.org/2000/svg">
<circle cx="41" cy="41" r="37" fill="#D2ECF6"/>
<path d="M82 41C82 63.6437 63.6437 82 41 82C18.3563 82 0 63.6437 0 41C0 18.3563 18.3563 0 41 0C63.6437 0 82 18.3563 82 41ZM0.9412 41C0.9412 63.1239 18.8761 81.0588 41 81.0588C63.1239 81.0588 81.0588 63.1239 81.0588 41C81.0588 18.8761 63.1239 0.9412 41 0.9412C18.8761 0.9412 0.9412 18.8761 0.9412 41Z" fill="#3E99C5"/>
<path d="M37.7775 33.86V43.24H39.3975V45.28H37.7775V48H35.4775V45.28H28.1775V43.62L34.7975 33.86H37.7775ZM30.8575 43.24H35.4775V36.32L30.8575 43.24ZM42.7352 45.22C43.1618 45.22 43.5085 45.3533 43.7752 45.62C44.0552 45.8867 44.1952 46.2467 44.1952 46.7C44.1952 47.1667 44.0552 47.5267 43.7752 47.78C43.5085 48.0333 43.1618 48.16 42.7352 48.16C42.3085 48.16 41.9552 48.0333 41.6752 47.78C41.4085 47.5267 41.2752 47.1667 41.2752 46.7C41.2752 46.2467 41.4085 45.8867 41.6752 45.62C41.9552 45.3533 42.3085 45.22 42.7352 45.22ZM47.1258 48L52.5858 35.94H45.5658V33.86H55.2058V35.66L49.7058 48H47.1258Z" fill="#3E99C5"/>
</svg>
