<svg width="82" height="82" viewBox="0 0 82 82" fill="none" xmlns="http://www.w3.org/2000/svg">
<circle cx="41" cy="41" r="37" fill="#D2ECF6"/>
<path d="M82 41C82 63.6437 63.6437 82 41 82C18.3563 82 0 63.6437 0 41C0 18.3563 18.3563 0 41 0C63.6437 0 82 18.3563 82 41ZM0.9412 41C0.9412 63.1239 18.8761 81.0588 41 81.0588C63.1239 81.0588 81.0588 63.1239 81.0588 41C81.0588 18.8761 63.1239 0.9412 41 0.9412C18.8761 0.9412 0.9412 18.8761 0.9412 41Z" fill="#3E99C5"/>
<path d="M36.6545 33.86V43.24H38.2745V45.28H36.6545V48H34.3545V45.28H27.0545V43.62L33.6745 33.86H36.6545ZM29.7345 43.24H34.3545V36.32L29.7345 43.24ZM41.6121 45.22C42.0388 45.22 42.3854 45.3533 42.6521 45.62C42.9321 45.8867 43.0721 46.2467 43.0721 46.7C43.0721 47.1667 42.9321 47.5267 42.6521 47.78C42.3854 48.0333 42.0388 48.16 41.6121 48.16C41.1854 48.16 40.8321 48.0333 40.5521 47.78C40.2854 47.5267 40.1521 47.1667 40.1521 46.7C40.1521 46.2467 40.2854 45.8867 40.5521 45.62C40.8321 45.3533 41.1854 45.22 41.6121 45.22ZM53.4627 41.24C53.2627 41.5467 53.0294 41.8067 52.7627 42.02C52.4961 42.2333 52.2027 42.4133 51.8827 42.56C51.5761 42.6933 51.2494 42.7933 50.9027 42.86C50.5561 42.9267 50.2094 42.96 49.8627 42.96C49.1961 42.96 48.5827 42.86 48.0227 42.66C47.4761 42.4467 46.9961 42.1467 46.5827 41.76C46.1694 41.3733 45.8494 40.9 45.6227 40.34C45.3961 39.78 45.2827 39.1467 45.2827 38.44C45.2827 37.72 45.4094 37.0667 45.6627 36.48C45.9294 35.8933 46.2827 35.4 46.7227 35C47.1761 34.5867 47.7027 34.2733 48.3027 34.06C48.9161 33.8333 49.5761 33.72 50.2827 33.72C51.2694 33.7067 52.1227 33.9267 52.8427 34.38C53.5761 34.82 54.1361 35.38 54.5227 36.06C54.9227 36.7267 55.2027 37.4933 55.3627 38.36C55.5361 39.2133 55.6361 40.0733 55.6627 40.94C55.6627 41.8467 55.5761 42.7333 55.4027 43.6C55.2294 44.4667 54.9294 45.24 54.5027 45.92C54.0894 46.5867 53.5294 47.1267 52.8227 47.54C52.1161 47.94 51.2294 48.14 50.1627 48.14C49.5761 48.14 49.0161 48.0733 48.4827 47.94C47.9627 47.7933 47.4894 47.58 47.0627 47.3C46.6361 47.0067 46.2761 46.6467 45.9827 46.22C45.6894 45.78 45.4961 45.26 45.4027 44.66H47.7827C47.9561 45.14 48.2694 45.5 48.7227 45.74C49.1761 45.9667 49.6561 46.08 50.1627 46.08C50.5627 46.08 50.9161 46.0267 51.2227 45.92C51.5294 45.8 51.8027 45.6467 52.0427 45.46C52.2827 45.2733 52.4894 45.0533 52.6627 44.8C52.8361 44.5333 52.9761 44.2533 53.0827 43.96C53.2561 43.52 53.3627 43.0733 53.4027 42.62C53.4427 42.1533 53.4627 41.6933 53.4627 41.24ZM47.6027 38.3C47.6027 39.1133 47.8361 39.7533 48.3027 40.22C48.7827 40.6867 49.4227 40.92 50.2227 40.92C50.5827 40.92 50.9227 40.8667 51.2427 40.76C51.5761 40.64 51.8627 40.48 52.1027 40.28C52.3427 40.0667 52.5294 39.8133 52.6627 39.52C52.8094 39.2133 52.8894 38.88 52.9027 38.52C52.9027 38.1467 52.8427 37.7933 52.7227 37.46C52.6027 37.1267 52.4294 36.84 52.2027 36.6C51.9761 36.3467 51.6961 36.1467 51.3627 36C51.0427 35.8533 50.6827 35.78 50.2827 35.78C49.5094 35.78 48.8694 36.0067 48.3627 36.46C47.8694 36.9133 47.6161 37.5267 47.6027 38.3Z" fill="#3E99C5"/>
</svg>
