<svg width="82" height="82" viewBox="0 0 82 82" fill="none" xmlns="http://www.w3.org/2000/svg">
<circle cx="41" cy="41" r="37" fill="#D2ECF6"/>
<path d="M82 41C82 63.6437 63.6437 82 41 82C18.3563 82 0 63.6437 0 41C0 18.3563 18.3563 0 41 0C63.6437 0 82 18.3563 82 41ZM0.9412 41C0.9412 63.1239 18.8761 81.0588 41 81.0588C63.1239 81.0588 81.0588 63.1239 81.0588 41C81.0588 18.8761 63.1239 0.9412 41 0.9412C18.8761 0.9412 0.9412 18.8761 0.9412 41Z" fill="#3E99C5"/>
<path d="M27.5498 41.78L28.3098 33.86H36.8298V35.92H30.2498L29.8498 39.6C30.2365 39.3467 30.6498 39.1533 31.0898 39.02C31.5432 38.8733 32.0832 38.8 32.7098 38.8C33.4165 38.8 34.0565 38.9067 34.6298 39.12C35.2032 39.32 35.6965 39.6133 36.1098 40C36.5232 40.3867 36.8365 40.86 37.0498 41.42C37.2765 41.98 37.3898 42.6133 37.3898 43.32C37.3898 44.08 37.2565 44.76 36.9898 45.36C36.7232 45.96 36.3565 46.4667 35.8898 46.88C35.4232 47.2933 34.8765 47.6133 34.2498 47.84C33.6232 48.0533 32.9432 48.16 32.2098 48.16C31.5832 48.16 30.9898 48.0867 30.4298 47.94C29.8832 47.7933 29.3832 47.5667 28.9298 47.26C28.4898 46.9533 28.1165 46.56 27.8098 46.08C27.5165 45.5867 27.3232 45.0067 27.2298 44.34H29.5298C29.6098 44.62 29.7365 44.8667 29.9098 45.08C30.0965 45.2933 30.3098 45.4733 30.5498 45.62C30.7898 45.7667 31.0498 45.88 31.3298 45.96C31.6098 46.0267 31.8898 46.06 32.1698 46.06C32.5698 46.06 32.9432 46.0133 33.2898 45.92C33.6365 45.8133 33.9365 45.6533 34.1898 45.44C34.4565 45.2267 34.6632 44.96 34.8098 44.64C34.9565 44.3067 35.0298 43.9067 35.0298 43.44C35.0298 42.5867 34.7765 41.9333 34.2698 41.48C33.7765 41.0267 33.1232 40.8 32.3098 40.8C31.8032 40.8 31.3432 40.8867 30.9298 41.06C30.5165 41.2333 30.1432 41.4733 29.8098 41.78H27.5498ZM41.075 45.22C41.5017 45.22 41.8483 45.3533 42.115 45.62C42.395 45.8867 42.535 46.2467 42.535 46.7C42.535 47.1667 42.395 47.5267 42.115 47.78C41.8483 48.0333 41.5017 48.16 41.075 48.16C40.6483 48.16 40.295 48.0333 40.015 47.78C39.7483 47.5267 39.615 47.1667 39.615 46.7C39.615 46.2467 39.7483 45.8867 40.015 45.62C40.295 45.3533 40.6483 45.22 41.075 45.22ZM55.8856 40.92C55.8856 42 55.7723 42.9867 55.5456 43.88C55.3323 44.76 54.9923 45.5133 54.5256 46.14C54.0723 46.7667 53.499 47.2533 52.8056 47.6C52.1123 47.9467 51.2923 48.12 50.3456 48.12C49.399 48.12 48.579 47.9533 47.8856 47.62C47.1923 47.2733 46.619 46.7933 46.1656 46.18C45.7123 45.5667 45.3723 44.8267 45.1456 43.96C44.919 43.0933 44.8056 42.1267 44.8056 41.06C44.8056 39.9667 44.9123 38.9667 45.1256 38.06C45.339 37.1533 45.6723 36.3733 46.1256 35.72C46.579 35.0667 47.1523 34.5667 47.8456 34.22C48.5523 33.86 49.3856 33.68 50.3456 33.68C51.279 33.68 52.0923 33.8533 52.7856 34.2C53.479 34.5467 54.0523 35.04 54.5056 35.68C54.9723 36.32 55.319 37.0867 55.5456 37.98C55.7723 38.86 55.8856 39.84 55.8856 40.92ZM47.1056 40.92C47.1056 41.6533 47.159 42.3333 47.2656 42.96C47.3723 43.5867 47.5523 44.1333 47.8056 44.6C48.059 45.0533 48.3923 45.4133 48.8056 45.68C49.219 45.9333 49.7323 46.06 50.3456 46.06C50.9456 46.06 51.4523 45.9333 51.8656 45.68C52.279 45.4133 52.6123 45.0533 52.8656 44.6C53.119 44.1333 53.299 43.5867 53.4056 42.96C53.5123 42.3333 53.5656 41.6533 53.5656 40.92C53.5656 40.2 53.5123 39.5267 53.4056 38.9C53.299 38.26 53.119 37.7133 52.8656 37.26C52.6123 36.7933 52.279 36.4267 51.8656 36.16C51.4523 35.8933 50.9456 35.76 50.3456 35.76C49.7323 35.76 49.219 35.8933 48.8056 36.16C48.3923 36.4267 48.059 36.7933 47.8056 37.26C47.5523 37.7133 47.3723 38.26 47.2656 38.9C47.159 39.5267 47.1056 40.2 47.1056 40.92Z" fill="#3E99C5"/>
</svg>
