<svg width="60" height="60" viewBox="0 0 60 60" fill="none" xmlns="http://www.w3.org/2000/svg">
<path d="M27.2526 24.1088V24.1189H30.0002C30.7055 24.1189 31.3364 24.7498 31.3364 25.4551V38.8914H32.8398C33.5513 38.882 34.1936 39.5162 34.1936 40.2276C34.1936 40.9392 33.5511 41.5729 32.8398 41.5639H27.1637C26.4603 41.5941 25.8025 40.9941 25.7696 40.2901L27.2526 24.1088ZM27.2526 24.1088L27.0433 24.1186M27.2526 24.1088L27.0433 24.1186M27.0433 24.1186C26.3381 24.1514 25.7364 24.8118 25.7696 25.5175M27.0433 24.1186L25.7696 25.5175M28.6639 26.791H27.1637C26.4603 26.8212 25.8024 26.2212 25.7696 25.5175M28.6639 26.791L25.7696 25.5175M28.6639 26.791V38.8908H27.0526V38.8906L27.0433 38.8911C26.3381 38.924 25.7364 39.5843 25.7696 40.29L28.6639 26.791ZM29.5275 4.8L29.532 4.8046C15.8433 5.05478 4.8 16.2525 4.8 30.0001C4.8 43.9036 16.0952 55.1992 29.9988 55.1999C30.7101 55.2089 31.3527 54.5752 31.3527 53.8637C31.3527 53.1523 30.7103 52.5181 29.9989 52.5274C17.5449 52.5267 7.47274 42.4543 7.47274 30.0003C7.47274 17.5459 17.5456 7.47324 30.0002 7.47324C42.4547 7.47324 52.5276 17.5459 52.5276 30.0003C52.5276 40.7982 44.9495 49.773 34.827 51.9801C34.1135 52.104 33.5957 52.871 33.7487 53.5793C33.9016 54.2877 34.6902 54.7725 35.3914 54.5904C46.719 52.1204 55.2 42.0548 55.2 29.9998C55.2 16.0958 43.904 4.8 29.9998 4.8H29.5275ZM30.0002 18.4366C28.9484 18.4366 28.0955 19.2894 28.0955 20.3412C28.0955 21.3929 28.9484 22.2458 30.0002 22.2458C31.0519 22.2458 31.9048 21.393 31.9048 20.3412C31.9048 19.2895 31.0519 18.4366 30.0002 18.4366Z" fill="#FF7001" stroke="#FF7001" stroke-width="0.4"/>
</svg>
