<svg width="338" height="129" viewBox="0 0 338 129" fill="none" xmlns="http://www.w3.org/2000/svg">
<mask id="path-1-inside-1_124_336" fill="white">
<path fill-rule="evenodd" clip-rule="evenodd" d="M0 6C0 2.68629 2.68629 0 6 0H332C335.314 0 338 2.68629 338 6V35C338 37.7614 335.65 39.9004 333.17 41.1146C329.516 42.9033 327 46.6578 327 51C327 55.3422 329.516 59.0967 333.17 60.8854C335.65 62.0996 338 64.2386 338 67V123C338 126.314 335.314 129 332 129H5.99999C2.68628 129 0 126.314 0 123V67C0 64.2386 2.35028 62.0996 4.83044 60.8854C8.48406 59.0967 11 55.3422 11 51C11 46.6578 8.48406 42.9033 4.83044 41.1146C2.35028 39.9004 0 37.7614 0 35V6Z"/>
</mask>
<path fill-rule="evenodd" clip-rule="evenodd" d="M0 6C0 2.68629 2.68629 0 6 0H332C335.314 0 338 2.68629 338 6V35C338 37.7614 335.65 39.9004 333.17 41.1146C329.516 42.9033 327 46.6578 327 51C327 55.3422 329.516 59.0967 333.17 60.8854C335.65 62.0996 338 64.2386 338 67V123C338 126.314 335.314 129 332 129H5.99999C2.68628 129 0 126.314 0 123V67C0 64.2386 2.35028 62.0996 4.83044 60.8854C8.48406 59.0967 11 55.3422 11 51C11 46.6578 8.48406 42.9033 4.83044 41.1146C2.35028 39.9004 0 37.7614 0 35V6Z" fill="white"/>
<path d="M4.83044 41.1146L5.70984 39.3183L4.83044 41.1146ZM4.83044 60.8854L5.70984 62.6817L4.83044 60.8854ZM333.17 60.8854L332.29 62.6817L333.17 60.8854ZM333.17 41.1146L332.29 39.3183L333.17 41.1146ZM6 -2C1.58172 -2 -2 1.58173 -2 6H2C2 3.79086 3.79086 2 6 2V-2ZM332 -2H6V2H332V-2ZM340 6C340 1.58172 336.418 -2 332 -2V2C334.209 2 336 3.79086 336 6H340ZM340 35V6H336V35H340ZM329 51C329 47.4503 331.055 44.3767 334.049 42.9109L332.29 39.3183C327.977 41.4298 325 45.8654 325 51H329ZM334.049 59.0891C331.055 57.6233 329 54.5497 329 51H325C325 56.1346 327.977 60.5702 332.29 62.6817L334.049 59.0891ZM340 123V67H336V123H340ZM332 131C336.418 131 340 127.418 340 123H336C336 125.209 334.209 127 332 127V131ZM5.99999 131H332V127H5.99999V131ZM-2 123C-2 127.418 1.58171 131 5.99999 131V127C3.79086 127 2 125.209 2 123H-2ZM-2 67V123H2V67H-2ZM9 51C9 54.5497 6.94516 57.6233 3.95105 59.0891L5.70984 62.6817C10.023 60.5702 13 56.1346 13 51H9ZM3.95105 42.9109C6.94516 44.3767 9 47.4503 9 51H13C13 45.8654 10.023 41.4298 5.70984 39.3183L3.95105 42.9109ZM-2 6V35H2V6H-2ZM5.70984 39.3183C3.41415 38.1944 2 36.5655 2 35H-2C-2 38.9573 1.28641 41.6064 3.95105 42.9109L5.70984 39.3183ZM2 67C2 65.4345 3.41415 63.8056 5.70984 62.6817L3.95105 59.0891C1.28642 60.3936 -2 63.0427 -2 67H2ZM332.29 62.6817C334.586 63.8056 336 65.4345 336 67H340C340 63.0427 336.714 60.3936 334.049 59.0891L332.29 62.6817ZM336 35C336 36.5655 334.586 38.1944 332.29 39.3183L334.049 42.9109C336.714 41.6064 340 38.9573 340 35H336Z" fill="#FF7001" mask="url(#path-1-inside-1_124_336)"/>
</svg>
