<svg width="82" height="82" viewBox="0 0 82 82" fill="none" xmlns="http://www.w3.org/2000/svg">
<circle cx="41" cy="41" r="37" fill="#D2ECF6"/>
<path d="M82 41C82 63.6437 63.6437 82 41 82C18.3563 82 0 63.6437 0 41C0 18.3563 18.3563 0 41 0C63.6437 0 82 18.3563 82 41ZM0.9412 41C0.9412 63.1239 18.8761 81.0588 41 81.0588C63.1239 81.0588 81.0588 63.1239 81.0588 41C81.0588 18.8761 63.1239 0.9412 41 0.9412C18.8761 0.9412 0.9412 18.8761 0.9412 41Z" fill="#3E99C5"/>
<path d="M36.8107 33.86V43.24H38.4307V45.28H36.8107V48H34.5107V45.28H27.2107V43.62L33.8307 33.86H36.8107ZM29.8907 43.24H34.5107V36.32L29.8907 43.24ZM41.7684 45.22C42.195 45.22 42.5417 45.3533 42.8084 45.62C43.0884 45.8867 43.2284 46.2467 43.2284 46.7C43.2284 47.1667 43.0884 47.5267 42.8084 47.78C42.5417 48.0333 42.195 48.16 41.7684 48.16C41.3417 48.16 40.9884 48.0333 40.7084 47.78C40.4417 47.5267 40.3084 47.1667 40.3084 46.7C40.3084 46.2467 40.4417 45.8867 40.7084 45.62C40.9884 45.3533 41.3417 45.22 41.7684 45.22ZM50.339 48.14C49.6857 48.14 49.059 48.0733 48.459 47.94C47.859 47.7933 47.319 47.5733 46.839 47.28C46.3723 46.9733 45.9723 46.58 45.639 46.1C45.319 45.62 45.1123 45.04 45.019 44.36H47.359C47.4657 44.7067 47.6257 44.9867 47.839 45.2C48.0523 45.4133 48.2923 45.5867 48.559 45.72C48.839 45.8533 49.1323 45.9467 49.439 46C49.7457 46.04 50.0457 46.06 50.339 46.06C50.6457 46.06 50.9657 46.0333 51.299 45.98C51.6323 45.9133 51.9323 45.8 52.199 45.64C52.479 45.48 52.7057 45.26 52.879 44.98C53.0657 44.6867 53.159 44.3067 53.159 43.84C53.159 43.4133 53.0723 43.0667 52.899 42.8C52.739 42.5333 52.519 42.3267 52.239 42.18C51.9723 42.0333 51.6657 41.9333 51.319 41.88C50.9857 41.8267 50.6457 41.8 50.299 41.8H48.899V39.84H49.719C50.039 39.84 50.3723 39.8067 50.719 39.74C51.0657 39.6733 51.379 39.56 51.659 39.4C51.9523 39.24 52.1857 39.0267 52.359 38.76C52.5457 38.4933 52.639 38.16 52.639 37.76C52.639 37.3733 52.5723 37.0533 52.439 36.8C52.3057 36.5333 52.1257 36.3267 51.899 36.18C51.6723 36.02 51.4123 35.9133 51.119 35.86C50.839 35.7933 50.539 35.76 50.219 35.76C49.6723 35.76 49.159 35.8867 48.679 36.14C48.199 36.38 47.8857 36.8067 47.739 37.42H45.459C45.539 36.7667 45.719 36.2067 45.999 35.74C46.279 35.26 46.639 34.8733 47.079 34.58C47.519 34.2733 48.0123 34.0467 48.559 33.9C49.119 33.7533 49.7057 33.68 50.319 33.68C50.919 33.68 51.4923 33.7467 52.039 33.88C52.599 34.0133 53.0923 34.2267 53.519 34.52C53.9457 34.8133 54.2857 35.2 54.539 35.68C54.7923 36.1467 54.919 36.72 54.919 37.4C54.919 37.96 54.779 38.5133 54.499 39.06C54.2323 39.6067 53.7323 40.0667 52.999 40.44C53.839 40.6667 54.4657 41.08 54.879 41.68C55.2923 42.2667 55.499 42.98 55.499 43.82C55.499 44.5933 55.3523 45.2533 55.059 45.8C54.779 46.3333 54.4057 46.78 53.939 47.14C53.4857 47.4867 52.9457 47.74 52.319 47.9C51.6923 48.06 51.0323 48.14 50.339 48.14Z" fill="#3E99C5"/>
</svg>
