<svg width="40" height="40" viewBox="0 0 40 40" fill="none" xmlns="http://www.w3.org/2000/svg">
<path d="M16.6702 15.492L16.3951 17.7831H16.3948C16.3425 18.1524 16.4273 18.5282 16.6335 18.8391C16.8395 19.15 17.1525 19.3748 17.5128 19.4706C17.8734 19.5664 18.2566 19.5266 18.5897 19.3588L20.448 18.4133L22.3152 19.3625C22.5261 19.4672 22.7585 19.5219 22.9941 19.5227C23.4319 19.5211 23.848 19.3319 24.1367 19.0032C24.4256 18.6742 24.5596 18.2374 24.5049 17.8031L24.2259 15.4834L25.7403 13.7637C26.0907 13.3542 26.2027 12.7921 26.0368 12.2794C25.8612 11.7599 25.4276 11.3698 24.8924 11.2502L22.6412 10.7974H22.6415C22.3976 10.7477 22.1438 10.7969 21.9363 10.9343C21.7285 11.0714 21.5838 11.2858 21.534 11.5297C21.4304 12.0376 21.7583 12.5335 22.2663 12.6372L23.9333 12.9724L22.7177 14.3578C22.4283 14.6878 22.2919 15.1249 22.3427 15.5609L22.5615 17.3831L21.1357 16.6576C20.7039 16.4368 20.1921 16.4368 19.7603 16.6576L18.3296 17.3854L18.5471 15.5708C18.5999 15.134 18.4633 14.6952 18.1721 14.3654L16.9552 12.9821L18.6523 12.6419V12.6422C19.0786 12.5532 19.4463 12.286 19.6627 11.9081L21.2271 9.67711V9.67685C21.3883 9.47508 21.4593 9.21573 21.4229 8.96007C21.3865 8.70413 21.2465 8.47462 21.0353 8.32571C20.8244 8.17654 20.5614 8.12106 20.3081 8.17235C20.055 8.22364 19.8342 8.377 19.6978 8.59656L18.1245 10.8312L16.0286 11.2525V11.2528C15.6721 11.3226 15.3516 11.516 15.1233 11.7989C14.8954 12.0816 14.7742 12.4359 14.7816 12.7992C14.7889 13.1624 14.9239 13.5115 15.1631 13.785L16.6702 15.492Z" fill="#FF7001"/>
<path d="M12.8369 38.0658C13.6369 38.5322 14.6217 38.55 15.4381 38.1135L20.1377 35.8961C20.3408 35.8299 20.5598 35.8299 20.7629 35.8961L25.4638 38.1184C25.8759 38.3186 26.3274 38.4254 26.7856 38.4309C27.2365 38.4353 27.6793 38.3105 28.0613 38.0708C28.8684 37.5016 29.3235 36.5556 29.2644 35.5697V22.7362C30.4998 21.6097 31.4878 20.2386 32.166 18.7103C32.8441 17.182 33.1974 15.5294 33.2034 13.8573C33.1403 10.534 31.7622 7.37141 29.3711 5.06224C26.98 2.75353 23.771 1.48693 20.4474 1.54006C17.1241 1.48693 13.9151 2.75353 11.5237 5.06224C9.1326 7.37121 7.75445 10.5338 7.69141 13.8573C7.69769 15.5363 8.05412 17.1958 8.73766 18.7296C9.42148 20.2635 10.4172 21.6376 11.6618 22.765L11.6367 35.5583C11.575 36.5454 12.0288 37.4941 12.8361 38.0656L12.8369 38.0658ZM27.3888 35.5648C27.4299 35.9053 27.3069 36.2449 27.0572 36.4802C26.7984 36.5896 26.5022 36.5653 26.2645 36.415L21.5623 34.1953C20.8508 33.8925 20.0466 33.8925 19.335 34.1953L14.6378 36.4177C14.3997 36.5673 14.1032 36.5914 13.8438 36.4826C13.5939 36.2468 13.4711 35.9058 13.5135 35.5648L13.536 24.1958C15.6142 25.4925 18.0152 26.1784 20.4653 26.1756C22.9148 26.1724 25.314 25.4802 27.3892 24.1783L27.3888 35.5648ZM9.5682 13.8572C9.63074 11.0311 10.8113 8.34551 12.8507 6.3886C14.8899 4.43161 17.622 3.36258 20.4479 3.41624C23.2742 3.36259 26.0064 4.43161 28.0457 6.38913C30.0851 8.34638 31.2654 11.0325 31.3277 13.8584C31.2651 16.6842 30.0846 19.37 28.0452 21.3269C26.006 23.2839 23.2739 24.3527 20.448 24.299C17.6216 24.3527 14.8895 23.2839 12.8501 21.3264C10.8107 19.3689 9.63043 16.6829 9.5682 13.8572Z" fill="#FF7001"/>
</svg>
