<svg width="40" height="40" viewBox="0 0 40 40" fill="none" xmlns="http://www.w3.org/2000/svg">
<path d="M19.6263 7.61788C12.643 7.61788 6.87419 13.3114 6.87419 20.3714C6.87419 27.3554 12.5671 33.1248 19.6263 33.1248C26.6856 33.1248 32.3785 27.4313 32.3785 20.3714C32.3785 13.3114 26.6856 7.61788 19.6263 7.61788ZM30.7845 19.6122H27.0652C26.9135 15.5889 25.7748 12.1727 23.9529 10.0471C27.8241 11.6413 30.5567 15.2849 30.7844 19.6122H30.7845ZM19.6263 31.4547C16.5141 31.4547 13.9334 26.748 13.7058 21.0546H25.6229C25.395 26.8241 22.7383 31.4547 19.6263 31.4547ZM13.7055 19.6122C13.9332 13.9187 16.5898 9.21206 19.6261 9.21206C22.6624 9.21206 25.319 13.9188 25.5466 19.6122H13.7055ZM15.2997 10.0471C13.478 12.1726 12.3394 15.5889 12.1874 19.6122H8.46814C8.7718 15.2849 11.5044 11.6413 15.2996 10.0471H15.2997ZM8.46821 21.1305H12.1875C12.3392 25.1538 13.4778 28.57 15.2998 30.6956C11.5045 29.1014 8.7719 25.3815 8.46827 21.1305H8.46821ZM24.0289 30.6956C25.8505 28.5701 26.9892 25.1538 27.1411 21.1305H30.8604C30.5568 25.3816 27.8241 29.1014 24.0289 30.6956H24.0289ZM19.6265 6.55509C20.9169 6.55509 21.9038 5.4923 21.9038 4.27754C21.9038 2.98708 20.8412 2 19.6265 2C18.3362 2 17.3492 3.06279 17.3492 4.27754C17.3492 5.4923 18.4119 6.55509 19.6265 6.55509ZM19.6265 3.44249C20.0819 3.44249 20.3855 3.82217 20.3855 4.20156C20.3855 4.58124 20.0059 4.96063 19.6265 4.96063C19.2469 4.96063 18.8676 4.58095 18.8676 4.20156C18.8673 3.82215 19.2469 3.44249 19.6265 3.44249ZM19.6265 34.1116C18.3362 34.1116 17.3492 35.1744 17.3492 36.3891C17.3492 37.6039 18.4119 38.6667 19.6265 38.6667C20.9169 38.6667 21.9038 37.6039 21.9038 36.3891C21.9036 35.1744 20.9169 34.1116 19.6265 34.1116ZM19.6265 37.2242C19.1712 37.2242 18.8676 36.8445 18.8676 36.4651C18.8676 36.0854 19.2472 35.706 19.6265 35.706C20.0062 35.706 20.3855 36.0857 20.3855 36.4651C20.3855 36.8445 20.0819 37.2242 19.6265 37.2242ZM35.7185 18.018C34.4282 18.018 33.4412 19.0808 33.4412 20.2956C33.4412 21.586 34.5039 22.5731 35.7185 22.5731C37.0089 22.5731 37.9958 21.5103 37.9958 20.2956C38.0718 19.0808 37.0089 18.018 35.7185 18.018ZM35.7185 21.1306C35.2632 21.1306 34.9595 20.751 34.9595 20.3716C34.9595 19.9919 35.3392 19.6125 35.7185 19.6125C36.0982 19.6125 36.4775 19.9922 36.4775 20.3716C36.4775 20.751 36.1741 21.1306 35.7185 21.1306ZM5.88762 20.3716C5.88762 19.0811 4.82494 18.094 3.61031 18.094C2.31998 18.094 1.33301 19.1568 1.33301 20.3716C1.33301 21.662 2.39569 22.6491 3.61031 22.6491C4.82494 22.6488 5.88762 21.586 5.88762 20.3716ZM2.77562 20.3716C2.77562 19.9162 3.15526 19.6125 3.53461 19.6125C3.91425 19.6125 4.2936 19.9922 4.2936 20.3716C4.2936 20.7512 3.91396 21.1306 3.53461 21.1306C3.15497 21.1306 2.77562 20.751 2.77562 20.3716ZM23.9533 4.73336C24.105 4.35369 24.4846 4.12599 24.94 4.27796C30.0256 5.94813 34.1246 9.97148 35.7186 15.1336C35.8703 15.5133 35.6426 15.9687 35.2633 16.1204H35.0356C34.7319 16.1204 34.4283 15.8927 34.2766 15.589C32.7586 10.9583 29.039 7.23854 24.4089 5.72027C24.0292 5.56856 23.8015 5.11316 23.9535 4.73346L23.9533 4.73336ZM3.45877 15.0576C5.12876 9.97147 9.22767 5.87207 14.3133 4.20197C14.6929 4.05026 15.1482 4.27796 15.3 4.65737C15.4519 5.11303 15.2243 5.5684 14.8446 5.64438C10.1384 7.16252 6.49501 10.8825 4.9769 15.5131C4.90092 15.8168 4.59726 16.0445 4.21791 16.0445H3.99023C3.53488 15.8926 3.38293 15.5131 3.45891 15.0575L3.45877 15.0576ZM15.3001 36.0098C15.2241 36.3134 14.9204 36.5411 14.5411 36.5411H14.3134C9.22751 34.7953 5.1288 30.7716 3.45888 25.6096C3.30718 25.2299 3.53486 24.7745 3.91423 24.6228C4.29387 24.4711 4.7492 24.6988 4.90094 25.0782C6.41892 29.7849 10.1385 33.4287 14.7687 34.9469C15.2243 35.1746 15.452 35.5543 15.3003 36.0097L15.3001 36.0098ZM35.7187 25.6096C34.0487 30.6957 30.0257 34.7951 24.9401 36.4652H24.7124C24.4087 36.4652 24.1051 36.2375 23.9534 35.9339C23.8017 35.5542 24.0294 35.0988 24.4088 34.9471C29.039 33.4289 32.7584 29.7089 34.2765 25.0783C34.4282 24.6986 34.8078 24.4709 35.2632 24.6229C35.6426 24.7746 35.7945 25.2303 35.7185 25.6097L35.7187 25.6096Z" fill="#FF7001"/>
</svg>
